<svg xmlns="http://www.w3.org/2000/svg" viewBox="0 0 1200 850"><rect width="1200" height="850" fill="#fff"/><rect width="1200" height="850" fill="#fffaf0"/><g fill="#f97316" opacity=".45"><path d="M0 0h185l-35 280-55 100H0z"/><circle cx="140" cy="95" r="95"/><circle cx="70" cy="190" r="65"/></g><g fill="#ea580c" opacity=".28"><circle cx="1110" cy="90" r="80"/><circle cx="1160" cy="180" r="55"/></g><g fill="#f59e0b" opacity=".38"><path d="M1050 690l30 45 50-15-20 50 35 38-55 2-30 40-15-52-52-18 45-30z"/><path d="M120 700l25 38 43-12-18 42 30 32-46 2-25 35-12-44-44-15 38-26z"/></g></svg>